<?xml version="1.0" encoding="UTF-8" standalone="no"?>
<!DOCTYPE svg PUBLIC "-//W3C//DTD SVG 1.1//EN" "http://www.w3.org/Graphics/SVG/1.1/DTD/svg11.dtd">
<svg width="100%" height="100%" viewBox="0 0 77 63" version="1.1" xmlns="http://www.w3.org/2000/svg" xmlns:xlink="http://www.w3.org/1999/xlink" xml:space="preserve" xmlns:serif="http://www.serif.com/" style="fill-rule:evenodd;clip-rule:evenodd;stroke-linejoin:round;stroke-miterlimit:2;">
    <g id="Text:-CARB" serif:id="Text: CARB" transform="matrix(0.42497,0,0,0.434509,-30.8426,39.9563)">
        <g id="Text:-Board" serif:id="Text: Board">
            <path id="Letter:-D" serif:id="Letter: D" d="M240,44.8L241.8,44.8C242.3,44.8 242.7,44.7 243.1,44.6C243.5,44.5 243.8,44.3 244.1,44C244.4,43.7 244.6,43.4 244.8,43C245,42.6 245,42.1 245,41.6C245,41.1 244.9,40.6 244.8,40.2C244.6,39.8 244.4,39.5 244.1,39.2C243.8,38.9 243.5,38.8 243.1,38.6C242.7,38.5 242.3,38.4 241.8,38.4L240,38.4L240,44.8ZM239,37.7L242.1,37.7C242.4,37.7 242.6,37.7 242.9,37.8C243.2,37.9 243.5,38 243.8,38.1C244.1,38.2 244.4,38.4 244.6,38.6C244.9,38.8 245.1,39.1 245.3,39.4C245.5,39.7 245.7,40 245.8,40.4C245.9,40.8 246,41.2 246,41.7C246,42.2 245.9,42.6 245.8,43C245.7,43.4 245.5,43.7 245.3,44C245.1,44.3 244.9,44.6 244.6,44.8C244.3,45 244.1,45.2 243.8,45.3C243.5,45.4 243.2,45.5 242.9,45.6C242.6,45.7 242.3,45.7 242.1,45.7L239,45.7L239,37.7Z" style="fill:rgb(77,77,79);fill-rule:nonzero;"/>
            <path id="Letter:-R" serif:id="Letter: R" d="M231.1,41.2L232.7,41.2C233,41.2 233.2,41.1 233.5,41.1C233.7,41 233.9,40.9 234.1,40.7C234.3,40.5 234.3,40.3 234.3,39.9C234.3,39.6 234.2,39.4 234.1,39.2C234,39 233.8,38.9 233.7,38.8C233.5,38.7 233.3,38.6 233.1,38.6L231.1,38.6L231.1,41.2ZM230,37.7L232.1,37.7C232.5,37.7 232.9,37.7 233.2,37.8C233.6,37.8 233.9,37.9 234.2,38.1C234.5,38.3 234.7,38.5 234.9,38.8C235.1,39.1 235.2,39.5 235.2,40C235.2,40.6 235,41.1 234.7,41.4C234.3,41.8 233.9,42 233.2,42.1L235.5,45.8L234.3,45.8L232.1,42.2L230.9,42.2L230.9,45.8L230,45.8L230,37.7Z" style="fill:rgb(77,77,79);fill-rule:nonzero;"/>
            <path id="Letter:-A" serif:id="Letter: A" d="M223.1,38.9L221.4,42.8L224.7,42.8L223.1,38.9ZM222.7,37.7L223.6,37.7L227,45.7L225.9,45.7L225.1,43.7L221.1,43.7L220.3,45.7L219.2,45.7L222.7,37.7Z" style="fill:rgb(77,77,79);fill-rule:nonzero;"/>
            <path id="Letter:-O" serif:id="Letter: O" d="M212.2,45C212.7,45 213.1,44.9 213.5,44.7C213.9,44.5 214.2,44.3 214.5,44C214.8,43.7 215,43.3 215.1,42.9C215.3,42.5 215.3,42.1 215.3,41.6C215.3,41.1 215.2,40.7 215.1,40.3C214.9,39.9 214.7,39.5 214.5,39.2C214.2,38.9 213.9,38.7 213.5,38.5C213.1,38.3 212.7,38.2 212.2,38.2C211.7,38.2 211.3,38.3 210.9,38.5C210.5,38.7 210.2,38.9 209.9,39.2C209.6,39.5 209.4,39.9 209.3,40.3C209.1,40.7 209.1,41.1 209.1,41.6C209.1,42.1 209.2,42.5 209.3,42.9C209.5,43.3 209.7,43.7 209.9,44C210.2,44.3 210.5,44.5 210.9,44.7C211.3,44.9 211.8,45 212.2,45ZM212.2,45.9C211.6,45.9 211,45.8 210.5,45.6C210,45.4 209.6,45.1 209.2,44.7C208.8,44.3 208.5,43.9 208.3,43.4C208.1,42.9 208,42.3 208,41.7C208,41.1 208.1,40.5 208.3,40C208.5,39.5 208.8,39 209.2,38.7C209.6,38.3 210,38 210.5,37.8C211,37.6 211.6,37.5 212.2,37.5C212.8,37.5 213.4,37.6 213.9,37.8C214.4,38 214.8,38.3 215.2,38.7C215.6,39.1 215.9,39.5 216.1,40C216.3,40.5 216.4,41.1 216.4,41.7C216.4,42.3 216.3,42.9 216.1,43.4C215.9,43.9 215.6,44.4 215.2,44.7C214.8,45.1 214.4,45.4 213.9,45.6C213.4,45.8 212.8,45.9 212.2,45.9Z" style="fill:rgb(77,77,79);fill-rule:nonzero;"/>
            <path id="Letter:-B" serif:id="Letter: B" d="M200.2,44.8L201.8,44.8C202,44.8 202.3,44.8 202.5,44.7C202.7,44.7 202.9,44.6 203.1,44.5C203.3,44.4 203.4,44.2 203.5,44.1C203.6,43.9 203.7,43.7 203.7,43.5C203.7,43.2 203.6,43 203.5,42.8C203.4,42.6 203.2,42.5 203.1,42.3C202.9,42.2 202.7,42.1 202.5,42.1C202.3,42.1 202,42 201.8,42L200.2,42L200.2,44.8ZM200.2,41.1L202.2,41.1C202.4,41.1 202.6,41 202.8,40.9C203,40.8 203.1,40.7 203.2,40.5C203.3,40.3 203.4,40.1 203.4,39.8C203.4,39.6 203.4,39.4 203.3,39.2C203.2,39 203.1,38.9 202.9,38.8C202.7,38.7 202.6,38.6 202.3,38.6C202.1,38.6 201.9,38.5 201.7,38.5L200.3,38.5L200.3,41.1L200.2,41.1ZM199.2,37.7L201.7,37.7C202,37.7 202.4,37.7 202.7,37.8C203,37.9 203.3,38 203.5,38.1C203.7,38.3 203.9,38.5 204.1,38.7C204.3,38.9 204.3,39.3 204.3,39.6C204.3,40.1 204.2,40.5 203.9,40.8C203.6,41.1 203.3,41.3 202.9,41.4C203.2,41.4 203.4,41.5 203.6,41.6C203.8,41.7 204,41.8 204.2,42C204.4,42.2 204.5,42.4 204.6,42.6C204.7,42.8 204.7,43.1 204.7,43.3C204.7,43.7 204.6,44.1 204.4,44.4C204.2,44.7 204,44.9 203.7,45.1C203.4,45.3 203.1,45.4 202.7,45.5C202.3,45.6 202,45.6 201.6,45.6L199.2,45.6L199.2,37.7Z" style="fill:rgb(77,77,79);fill-rule:nonzero;"/>
        </g>
        <g id="Text:-Resources" serif:id="Text: Resources">
            <path id="Letter:-S" serif:id="Letter: S" d="M189.4,39.1C189.2,38.8 189,38.7 188.8,38.5C188.5,38.4 188.3,38.3 188,38.3C187.8,38.3 187.6,38.3 187.4,38.4C187.2,38.5 187,38.5 186.9,38.6C186.7,38.7 186.6,38.8 186.5,39C186.4,39.2 186.4,39.4 186.4,39.6C186.4,39.8 186.4,39.9 186.5,40.1C186.6,40.2 186.6,40.4 186.8,40.5C186.9,40.6 187.1,40.7 187.3,40.8C187.5,40.9 187.8,41 188.1,41.1C188.4,41.2 188.7,41.3 189,41.4C189.3,41.5 189.5,41.7 189.8,41.8C190,42 190.2,42.2 190.3,42.4C190.4,42.7 190.5,43 190.5,43.4C190.5,43.8 190.4,44.1 190.3,44.4C190.1,44.7 189.9,44.9 189.7,45.1C189.4,45.3 189.1,45.4 188.8,45.5C188.5,45.6 188.1,45.6 187.8,45.6C187.6,45.6 187.3,45.6 187.1,45.5C186.9,45.5 186.6,45.4 186.4,45.3C186.2,45.2 186,45.1 185.8,45C185.6,44.9 185.5,44.7 185.3,44.5L186.1,43.8C186.3,44.1 186.5,44.3 186.8,44.5C187.1,44.7 187.4,44.7 187.8,44.7C188,44.7 188.2,44.7 188.4,44.6C188.6,44.5 188.8,44.5 189,44.3C189.2,44.2 189.3,44 189.4,43.9C189.5,43.7 189.6,43.5 189.6,43.3C189.6,43.1 189.6,42.9 189.5,42.7C189.4,42.5 189.3,42.4 189.1,42.3C188.9,42.2 188.7,42.1 188.4,42C188.1,41.9 187.8,41.8 187.5,41.7C187.2,41.6 187,41.5 186.7,41.4C186.5,41.3 186.3,41.1 186.1,41C185.9,40.8 185.8,40.6 185.7,40.4C185.6,40.2 185.5,39.9 185.5,39.5C185.5,39.1 185.6,38.8 185.7,38.5C185.9,38.2 186.1,38 186.3,37.8C186.6,37.6 186.8,37.5 187.2,37.4C187.5,37.3 187.9,37.3 188.2,37.3C188.7,37.3 189.1,37.4 189.4,37.5C189.8,37.6 190.1,37.9 190.4,38.2L189.4,39.1Z" style="fill:rgb(77,77,79);fill-rule:nonzero;"/>
            <path id="Letter:-E" serif:id="Letter: E" d="M176.8,37.7L181.8,37.7L181.8,38.6L177.7,38.6L177.7,41.1L181.5,41.1L181.5,42L177.7,42L177.7,44.8L182,44.8L182,45.7L176.8,45.7L176.8,37.7Z" style="fill:rgb(77,77,79);fill-rule:nonzero;"/>
            <path id="Letter:-C" serif:id="Letter: C" d="M172.3,39.4C172.1,39.1 171.8,38.8 171.4,38.7C171,38.5 170.7,38.5 170.3,38.5C169.9,38.5 169.4,38.6 169.1,38.8C168.7,39 168.4,39.2 168.1,39.5C167.8,39.8 167.6,40.2 167.5,40.6C167.3,41 167.3,41.4 167.3,41.9C167.3,42.4 167.4,42.8 167.5,43.2C167.7,43.6 167.9,44 168.1,44.2C168.4,44.5 168.7,44.7 169.1,44.9C169.5,45.1 169.9,45.2 170.3,45.2C170.8,45.2 171.2,45.1 171.6,44.9C172,44.7 172.3,44.4 172.6,44.1L173.3,44.7C172.9,45.2 172.5,45.5 172,45.8C171.5,46 170.9,46.1 170.3,46.1C169.7,46.1 169.2,46 168.7,45.8C168.2,45.6 167.8,45.3 167.4,44.9C167,44.5 166.7,44.1 166.5,43.6C166.3,43.1 166.2,42.5 166.2,41.9C166.2,41.3 166.3,40.8 166.5,40.3C166.7,39.8 167,39.3 167.3,39C167.7,38.6 168.1,38.3 168.6,38.1C169.1,37.9 169.6,37.8 170.2,37.8C170.7,37.8 171.3,37.9 171.8,38.1C172.3,38.3 172.7,38.6 173.1,39.1L172.3,39.4Z" style="fill:rgb(77,77,79);fill-rule:nonzero;"/>
            <path id="Letter:-R1" serif:id="Letter: R" d="M158.6,41.2L160.2,41.2C160.5,41.2 160.7,41.1 161,41.1C161.2,41 161.4,40.9 161.6,40.7C161.8,40.5 161.8,40.3 161.8,39.9C161.8,39.6 161.7,39.4 161.6,39.2C161.5,39 161.3,38.9 161.2,38.8C161,38.7 160.8,38.6 160.6,38.6L158.6,38.6L158.6,41.2ZM157.7,37.7L159.7,37.7C160.1,37.7 160.5,37.7 160.8,37.8C161.2,37.8 161.5,37.9 161.8,38.1C162.1,38.3 162.3,38.5 162.5,38.8C162.7,39.1 162.8,39.5 162.8,40C162.8,40.6 162.6,41.1 162.3,41.4C161.9,41.8 161.5,42 160.8,42.1L163.1,45.8L162,45.8L159.8,42.2L158.6,42.2L158.6,45.8L157.7,45.8L157.7,37.7Z" style="fill:rgb(77,77,79);fill-rule:nonzero;"/>
            <path id="Letter:-U" serif:id="Letter: U" d="M153.6,42.7C153.6,43.1 153.5,43.5 153.4,43.9C153.3,44.3 153.1,44.6 152.9,44.9C152.7,45.2 152.4,45.4 152,45.6C151.6,45.8 151.2,45.9 150.6,45.9C150.1,45.9 149.6,45.8 149.2,45.6C148.8,45.4 148.5,45.2 148.3,44.9C148.1,44.6 147.9,44.3 147.8,43.9C147.7,43.5 147.6,43.1 147.6,42.7L147.6,37.8L148.5,37.8L148.5,42.6C148.5,42.9 148.5,43.2 148.6,43.5C148.7,43.8 148.8,44.1 148.9,44.3C149.1,44.5 149.3,44.7 149.5,44.9C149.8,45 150.1,45.1 150.5,45.1C150.9,45.1 151.2,45 151.5,44.9C151.8,44.8 152,44.6 152.1,44.3C152.3,44.1 152.4,43.8 152.4,43.5C152.5,43.2 152.5,42.9 152.5,42.6L152.5,37.8L153.4,37.8L153.4,42.7L153.6,42.7Z" style="fill:rgb(77,77,79);fill-rule:nonzero;"/>
            <path id="Letter:-O1" serif:id="Letter: O" d="M139.8,45C140.3,45 140.7,44.9 141.1,44.7C141.5,44.5 141.8,44.3 142.1,44C142.4,43.7 142.6,43.3 142.7,42.9C142.9,42.5 142.9,42.1 142.9,41.6C142.9,41.1 142.8,40.7 142.7,40.3C142.5,39.9 142.3,39.5 142.1,39.2C141.8,38.9 141.5,38.7 141.1,38.5C140.7,38.3 140.3,38.2 139.8,38.2C139.3,38.2 138.9,38.3 138.5,38.5C138.1,38.7 137.8,38.9 137.5,39.2C137.2,39.5 137,39.9 136.9,40.3C136.7,40.7 136.7,41.1 136.7,41.6C136.7,42.1 136.8,42.5 136.9,42.9C137.1,43.3 137.3,43.7 137.5,44C137.8,44.3 138.1,44.5 138.5,44.7C138.9,44.9 139.3,45 139.8,45ZM139.8,45.9C139.2,45.9 138.6,45.8 138.1,45.6C137.6,45.4 137.2,45.1 136.8,44.7C136.4,44.3 136.1,43.9 135.9,43.4C135.7,42.9 135.6,42.3 135.6,41.7C135.6,41.1 135.7,40.5 135.9,40C136.1,39.5 136.4,39 136.8,38.7C137.2,38.3 137.6,38 138.1,37.8C138.6,37.6 139.2,37.5 139.8,37.5C140.4,37.5 141,37.6 141.5,37.8C142,38 142.4,38.3 142.8,38.7C143.2,39.1 143.5,39.5 143.7,40C143.9,40.5 144,41.1 144,41.7C144,42.3 143.9,42.9 143.7,43.4C143.5,43.9 143.2,44.4 142.8,44.7C142.4,45.1 142,45.4 141.5,45.6C140.9,45.8 140.4,45.9 139.8,45.9Z" style="fill:rgb(77,77,79);fill-rule:nonzero;"/>
            <path id="Letter:-S1" serif:id="Letter: S" d="M131.4,39.1C131.2,38.8 131,38.7 130.8,38.5C130.5,38.4 130.3,38.3 130,38.3C129.8,38.3 129.6,38.3 129.4,38.4C129.2,38.5 129,38.5 128.9,38.6C128.7,38.7 128.6,38.8 128.5,39C128.4,39.2 128.4,39.4 128.4,39.6C128.4,39.8 128.4,39.9 128.5,40.1C128.6,40.2 128.6,40.4 128.8,40.5C128.9,40.6 129.1,40.7 129.3,40.8C129.5,40.9 129.8,41 130.1,41.1C130.4,41.2 130.7,41.3 131,41.4C131.3,41.5 131.5,41.7 131.8,41.8C132,42 132.2,42.2 132.3,42.4C132.4,42.7 132.5,43 132.5,43.4C132.5,43.8 132.4,44.1 132.3,44.4C132.1,44.7 131.9,44.9 131.7,45.1C131.4,45.3 131.1,45.4 130.8,45.5C130.5,45.6 130.1,45.6 129.8,45.6C129.6,45.6 129.3,45.6 129.1,45.5C128.9,45.5 128.6,45.4 128.4,45.3C128.2,45.2 128,45.1 127.8,45C127.6,44.9 127.5,44.7 127.3,44.5L128.1,43.8C128.3,44.1 128.5,44.3 128.8,44.5C129.1,44.7 129.4,44.7 129.8,44.7C130,44.7 130.2,44.7 130.4,44.6C130.6,44.5 130.8,44.5 131,44.3C131.2,44.2 131.3,44 131.4,43.9C131.5,43.7 131.6,43.5 131.6,43.3C131.6,43.1 131.6,42.9 131.5,42.7C131.4,42.5 131.3,42.4 131.1,42.3C130.9,42.2 130.7,42.1 130.4,42C130.1,41.9 129.8,41.8 129.5,41.7C129.2,41.6 129,41.5 128.7,41.4C128.5,41.3 128.3,41.1 128.1,41C127.9,40.8 127.8,40.6 127.7,40.4C127.6,40.2 127.5,39.9 127.5,39.5C127.5,39.1 127.6,38.8 127.7,38.5C127.9,38.2 128.1,38 128.3,37.8C128.6,37.6 128.8,37.5 129.2,37.4C129.5,37.3 129.9,37.3 130.2,37.3C130.7,37.3 131.1,37.4 131.4,37.5C131.8,37.6 132.1,37.9 132.4,38.2L131.4,39.1Z" style="fill:rgb(77,77,79);fill-rule:nonzero;"/>
            <path id="Letter:-E1" serif:id="Letter: E" d="M118.8,37.7L123.8,37.7L123.8,38.6L119.8,38.6L119.8,41.1L123.6,41.1L123.6,42L119.8,42L119.8,44.8L124,44.8L124,45.7L118.8,45.7L118.8,37.7Z" style="fill:rgb(77,77,79);fill-rule:nonzero;"/>
            <path id="Letter:-R2" serif:id="Letter: R" d="M110.7,41.2L112.3,41.2C112.6,41.2 112.8,41.1 113.1,41.1C113.3,41 113.5,40.9 113.7,40.7C113.9,40.5 113.9,40.3 113.9,39.9C113.9,39.6 113.8,39.4 113.7,39.2C113.6,39 113.4,38.9 113.3,38.8C113.1,38.7 112.9,38.6 112.7,38.6L110.7,38.6L110.7,41.2ZM109.7,37.7L111.8,37.7C112.2,37.7 112.6,37.7 112.9,37.8C113.3,37.8 113.6,37.9 113.9,38.1C114.2,38.3 114.4,38.5 114.6,38.8C114.8,39.1 114.9,39.5 114.9,40C114.9,40.6 114.7,41.1 114.4,41.4C114,41.8 113.6,42 112.9,42.1L115.2,45.8L114,45.8L111.8,42.2L110.6,42.2L110.6,45.8L109.7,45.8L109.7,37.7Z" style="fill:rgb(77,77,79);fill-rule:nonzero;"/>
        </g>
        <g id="Text:-Air" serif:id="Text: Air">
            <path id="Letter:-R3" serif:id="Letter: R" d="M96.4,41.2L98,41.2C98.3,41.2 98.5,41.1 98.8,41.1C99,41 99.2,40.9 99.4,40.7C99.6,40.5 99.6,40.3 99.6,39.9C99.6,39.6 99.5,39.4 99.4,39.2C99.3,39 99.1,38.9 99,38.8C98.8,38.7 98.6,38.6 98.4,38.6L96.4,38.6L96.4,41.2ZM95.4,37.7L97.5,37.7C97.9,37.7 98.3,37.7 98.6,37.8C99,37.8 99.3,37.9 99.6,38.1C99.9,38.3 100.1,38.5 100.3,38.8C100.5,39.1 100.6,39.5 100.6,40C100.6,40.6 100.4,41.1 100.1,41.4C99.7,41.8 99.3,42 98.6,42.1L100.9,45.8L99.7,45.8L97.5,42.2L96.3,42.2L96.3,45.8L95.4,45.8L95.4,37.7Z" style="fill:rgb(77,77,79);fill-rule:nonzero;"/>
            <rect id="Letter:-I" serif:id="Letter: I" x="90.4" y="37.7" width="1" height="8" style="fill:rgb(77,77,79);fill-rule:nonzero;"/>
            <path id="Letter:-A1" serif:id="Letter: A" d="M83.4,38.9L81.7,42.8L85,42.8L83.4,38.9ZM82.9,37.7L83.8,37.7L87.2,45.7L86.1,45.7L85.3,43.7L81.3,43.7L80.5,45.7L79.4,45.7L82.9,37.7Z" style="fill:rgb(77,77,79);fill-rule:nonzero;"/>
        </g>
        <g id="Text:-California" serif:id="Text: California">
            <path id="Letter:-A2" serif:id="Letter: A" d="M241.3,26.7L238.5,19.7L235.6,26.7L241.3,26.7ZM237.6,17.1L239.5,17.1L246,32.3L243.6,32.3L242.1,28.5L234.9,28.5L233.4,32.3L231,32.3L237.6,17.1Z" style="fill:rgb(77,77,79);fill-rule:nonzero;"/>
            <rect id="Letter:-I1" serif:id="Letter: I" x="222.6" y="17.1" width="2" height="15.2" style="fill:rgb(77,77,79);fill-rule:nonzero;"/>
            <path id="Letter:-N" serif:id="Letter: N" d="M201.2,17.1L203.9,17.1L212.2,29.6L212.3,29.6L212.3,17.1L214.3,17.1L214.3,32.3L211.7,32.3L203.3,19.8L203.2,19.8L203.2,32.3L201.2,32.3L201.2,17.1Z" style="fill:rgb(77,77,79);fill-rule:nonzero;"/>
            <path id="Letter:-R4" serif:id="Letter: R" d="M185.8,23.8L188.5,23.8C188.9,23.8 189.3,23.8 189.7,23.7C190.1,23.6 190.4,23.5 190.8,23.3C191.1,23.1 191.4,22.9 191.5,22.6C191.7,22.3 191.8,21.9 191.8,21.3C191.8,20.7 191.7,20.4 191.5,20C191.3,19.7 191.1,19.4 190.8,19.3C190.5,19.1 190.1,19 189.7,18.9C189.3,18.8 188.9,18.8 188.5,18.8L185.8,18.8L185.8,23.8ZM183.7,17.1L189,17.1C190,17.1 190.8,17.2 191.4,17.5C192,17.8 192.5,18.1 192.9,18.5C193.3,18.9 193.5,19.4 193.7,19.9C193.8,20.4 193.9,20.9 193.9,21.4C193.9,21.9 193.8,22.4 193.6,22.8C193.4,23.3 193.2,23.7 192.9,24C192.6,24.4 192.2,24.7 191.7,24.9C191.2,25.2 190.7,25.3 190.1,25.4L194.4,32.3L192,32.3L188.1,25.6L185.8,25.6L185.8,32.3L183.7,32.3L183.7,17.1Z" style="fill:rgb(77,77,79);fill-rule:nonzero;"/>
            <path id="Letter:-O2" serif:id="Letter: O" d="M168.5,30.8C169.4,30.8 170.2,30.6 170.9,30.3C171.6,30 172.2,29.5 172.7,29C173.2,28.5 173.6,27.8 173.9,27.1C174.2,26.4 174.3,25.6 174.3,24.7C174.3,23.9 174.2,23.1 173.9,22.3C173.6,21.6 173.2,20.9 172.7,20.4C172.2,19.9 171.6,19.4 170.9,19.1C170.2,18.8 169.4,18.6 168.5,18.6C167.6,18.6 166.8,18.8 166.1,19.1C165.4,19.4 164.8,19.9 164.3,20.4C163.8,20.9 163.4,21.6 163.1,22.3C162.8,23 162.7,23.8 162.7,24.7C162.7,25.5 162.8,26.3 163.1,27.1C163.4,27.8 163.8,28.5 164.3,29C164.8,29.5 165.4,30 166.1,30.3C166.9,30.6 167.7,30.8 168.5,30.8ZM168.5,32.7C167.3,32.7 166.3,32.5 165.3,32.1C164.3,31.7 163.5,31.1 162.8,30.4C162.1,29.7 161.6,28.8 161.2,27.9C160.8,26.9 160.6,25.9 160.6,24.7C160.6,23.6 160.8,22.5 161.2,21.5C161.6,20.5 162.1,19.7 162.8,19C163.5,18.3 164.3,17.7 165.3,17.3C166.3,16.9 167.3,16.7 168.5,16.7C169.7,16.7 170.7,16.9 171.7,17.3C172.7,17.7 173.5,18.3 174.2,19C174.9,19.7 175.4,20.6 175.8,21.5C176.2,22.5 176.4,23.5 176.4,24.7C176.4,25.8 176.2,26.9 175.8,27.9C175.4,28.9 174.9,29.7 174.2,30.4C173.5,31.1 172.7,31.7 171.7,32.1C170.8,32.5 169.7,32.7 168.5,32.7Z" style="fill:rgb(77,77,79);fill-rule:nonzero;"/>
            <path id="Letter:-F" serif:id="Letter: F" d="M144.9,17.1L154.5,17.1L154.5,19L147,19L147,23.8L154,23.8L154,25.7L147,25.7L147,32.3L144.9,32.3L144.9,17.1Z" style="fill:rgb(77,77,79);fill-rule:nonzero;"/>
            <rect id="Letter:-I2" serif:id="Letter: I" x="134.7" y="17.1" width="2" height="15.2" style="fill:rgb(77,77,79);fill-rule:nonzero;"/>
            <path id="Letter:-L" serif:id="Letter: L" d="M119.2,17.1L121.3,17.1L121.3,30.4L128.3,30.4L128.3,32.3L119.2,32.3L119.2,17.1Z" style="fill:rgb(77,77,79);fill-rule:nonzero;"/>
            <path id="Letter:-A3" serif:id="Letter: A" d="M108.3,26.7L105.5,19.7L102.6,26.7L108.3,26.7ZM104.6,17.1L106.5,17.1L113,32.3L110.6,32.3L109.1,28.5L101.9,28.5L100.4,32.3L98,32.3L104.6,17.1Z" style="fill:rgb(77,77,79);fill-rule:nonzero;"/>
            <path id="Letter:-C1" serif:id="Letter: C" d="M91,20.4C90.6,19.8 90,19.4 89.4,19.1C88.7,18.8 88.1,18.6 87.4,18.6C86.5,18.6 85.8,18.8 85.1,19.1C84.4,19.4 83.8,19.9 83.3,20.4C82.8,21 82.4,21.6 82.2,22.4C81.9,23.2 81.8,24 81.8,24.8C81.8,25.6 81.9,26.4 82.2,27.1C82.5,27.8 82.8,28.4 83.3,29C83.8,29.5 84.4,30 85.1,30.3C85.8,30.6 86.6,30.8 87.5,30.8C88.4,30.8 89.1,30.6 89.8,30.3C90.5,29.9 91,29.4 91.5,28.8L93,30C92.9,30.2 92.7,30.4 92.4,30.7C92.1,31 91.7,31.3 91.3,31.6C90.8,31.9 90.3,32.2 89.6,32.4C88.9,32.6 88.2,32.7 87.3,32.7C86.1,32.7 85,32.5 84,32C83,31.5 82.2,30.9 81.5,30.2C80.8,29.5 80.3,28.6 79.9,27.7C79.5,26.8 79.4,25.8 79.4,24.9C79.4,23.7 79.6,22.6 80,21.6C80.4,20.6 80.9,19.7 81.6,19C82.3,18.3 83.1,17.7 84.1,17.3C85.1,16.9 86.1,16.7 87.3,16.7C88.3,16.7 89.3,16.9 90.3,17.3C91.3,17.7 92.1,18.3 92.7,19.1L91,20.4Z" style="fill:rgb(77,77,79);fill-rule:nonzero;"/>
        </g>
    </g>
    <g id="CARB:-Logomark-with-Text" serif:id="CARB: Logomark with Text" transform="matrix(1,0,0,1,0,-2.78744)">
        <g id="Logomark">
            <path id="Yellow-Curve" serif:id="Yellow Curve" d="M12.6,45.7C13.1,44.2 13.6,42.7 14.1,41.3C14.9,39.3 15.8,37.2 16.7,35.2C17.7,33.2 18.8,31.3 19.9,29.4C21,27.6 22.3,25.7 23.6,23.9C24.8,22.2 26.3,20.5 27.8,18.8C29.4,17.1 31,15.6 32.6,14.3C34.3,12.9 36.1,11.6 38,10.5C40,9.3 42,8.4 43.9,7.8C44.2,7.7 44.6,7.6 45,7.5C45.2,7.5 45.3,7.4 45.5,7.4C46,7.2 46.4,7.1 46.9,7L48.3,6.8L49.5,6.7L50.3,6.7C52.4,6.7 54.5,7.2 56.4,8.2C58.3,9.2 60,10.6 61.2,12.3L61.7,12.9L62.3,13.9L62.9,15L63,15.2C63.2,15.6 63.4,16 63.5,16.4C63.6,16.6 63.6,16.7 63.7,16.9C63.8,17.2 64,17.6 64.1,17.9C65.3,21.6 65.7,25.8 65.5,30.7C65.3,34.8 64.5,39.2 63.2,43.5C63,44.1 62.8,44.8 62.6,45.5L62.6,45.6L64.8,45.6C65,45.1 65.1,44.6 65.3,44.1C65.9,42 66.4,39.8 66.8,37.5C67.2,35.2 67.4,32.9 67.5,30.8C67.6,28.5 67.5,26.3 67.3,24C67,21.6 66.5,19.4 65.8,17.4C65.7,17 65.5,16.6 65.4,16.3C65.1,16.2 65,16 65,15.8C64.8,15.3 64.6,14.9 64.3,14.4L63.6,13.1L62.9,12L62.4,11.3C61,9.6 59.1,8.1 57,7.1C54.9,6.1 52.6,5.6 50.3,5.7L49.4,5.7L48.1,5.8L46.9,6L46.7,6C46.2,6.1 45.7,6.2 45.3,6.4C45.1,6.5 45,6.5 44.8,6.5C44.4,6.6 44.1,6.7 43.7,6.9C39.9,8.3 36.2,10.5 32.3,13.9C29.1,16.7 26.1,20 23.3,23.7C22,25.5 20.7,27.4 19.6,29.2C18.5,31.1 17.4,33 16.4,35L16.5,35L16.4,35C15.4,37 14.5,39.1 13.7,41.1C13.1,42.5 12.6,44 12.1,45.6L12.1,45.7L12.6,45.7Z" style="fill:rgb(253,183,43);fill-rule:nonzero;"/>
            <path id="Light-Green" serif:id="Light Green" d="M3.4,45.7C3.4,42.7 4.1,39.6 5.5,36.9C6.8,34.3 8.8,31.9 11.2,29.9C13.5,28 16.2,26.6 19.2,25.6C22,24.7 25,24.2 28.1,24.3C31.2,24.4 34.1,24.9 36.9,25.9C39.7,26.9 42.3,28.4 44.6,30.4C46.9,32.3 48.7,34.7 50,37.3C51.3,39.9 52,42.8 52,45.7L54.1,45.7C54.1,42.5 53.3,39.3 51.8,36.3C50.4,33.5 48.3,31 45.7,28.9C43.3,26.9 40.5,25.4 37.3,24.4C34.3,23.4 31.2,23 28,23C24.8,23.1 21.7,23.6 18.8,24.7C15.8,25.8 13.1,27.3 10.7,29.4C8.3,31.4 6.3,33.9 5,36.7C3.6,39.5 2.9,42.6 2.9,45.7L3.4,45.7Z" style="fill:rgb(46,172,155);fill-rule:nonzero;"/>
            <path id="Light-Blue" serif:id="Light Blue" d="M16.7,45.7C16.8,44.9 17,44.1 17.1,43.7C17.3,43.1 17.6,42.5 18,41.9C18.7,40.8 19.7,39.8 20.8,38.9C22.7,37.4 25.2,36.2 28.2,35.2C33,33.6 38.6,32.9 44.6,33C50.5,33.1 55.9,34.1 60.8,35.8C63.6,36.8 66,38.1 67.9,39.5C69,40.3 69.9,41.3 70.5,42.3C70.8,42.9 71.1,43.4 71.3,43.9C71.5,44.5 71.6,45 71.6,45.6L73.7,45.6C73.7,44.8 73.6,44 73.3,43.2C73.1,42.5 72.7,41.8 72.3,41.1C71.5,39.9 70.5,38.8 69.2,37.8C68.1,37 66.9,36.2 65.5,35.5C64.3,34.9 63,34.4 61.5,33.9C59.1,33.1 56.4,32.5 53.2,32.1C51.8,31.9 50.4,31.8 49,31.7C47.7,31.6 46.3,31.6 44.8,31.6C38.8,31.7 33.2,32.7 28.2,34.5C25.2,35.6 22.8,36.9 20.8,38.4C19.6,39.3 18.6,40.4 17.9,41.5C17.5,42.1 17.2,42.8 17,43.4C16.9,43.8 16.6,44.7 16.6,45.5L16.7,45.5L16.7,45.7Z" style="fill:rgb(30,138,191);fill-rule:nonzero;"/>
            <path id="Navy-Curve" serif:id="Navy Curve" d="M9.1,45.7L9.5,45.7C9.4,44.6 9.3,43.7 9.2,42.8C9.1,40.9 9,39.2 9,37.5C9,33.8 9.4,30.4 10,27.2C10.7,23.4 11.8,20.2 13.4,17.5C14.3,15.9 15.3,14.6 16.5,13.6C17.2,13 17.9,12.5 18.5,12.2C19.2,11.8 20,11.6 20.8,11.5C21.6,11.4 22.4,11.5 23.2,11.6C23.9,11.7 24.6,12 25.5,12.4C26.9,13.1 28.2,14.2 29.4,15.4C31.4,17.5 33.2,20.2 34.9,23.8C36.2,26.5 37.4,29.6 38.5,33.4C38.9,35 39.3,36.6 39.7,38.4C40,39.9 40.3,41.6 40.6,43.4C40.7,44.1 40.8,44.8 40.9,45.5L43,45.5C42.9,44.7 42.8,43.9 42.7,43.1C41.6,35.5 39.6,28.8 36.6,23C35.8,21.4 34.9,19.9 33.9,18.4C32.8,16.8 31.7,15.5 30.5,14.3C29,13.1 27.6,12 26,11.3C25,10.9 24.2,10.6 23.4,10.4C22.5,10.2 21.5,10.2 20.6,10.4C19.7,10.6 18.8,10.9 18,11.3C17.3,11.7 16.6,12.2 15.8,12.9C14.6,14.1 13.5,15.5 12.6,17.2C11.2,20 10.2,23.1 9.5,27.2C9,30.3 8.7,33.7 8.7,37.6C8.7,39.3 8.8,41 8.9,42.8C8.9,43.7 9,44.6 9.1,45.7Z" style="fill:rgb(14,89,124);fill-rule:nonzero;"/>
        </g>
    </g>
</svg>
